<mxfile modified="2021-02-20T10:11:16.931Z" host="app.diagrams.net" agent="5.0 (Macintosh; Intel Mac OS X 11_2_0) AppleWebKit/537.36 (KHTML, like Gecko) Chrome/88.0.4324.150 Safari/537.36" etag="88AqcvCj1CkyXzsEj-Od" version="14.4.2" type="github">
  <diagram id="7gcUSTIZ7YSJ5vT40chW" name="Page-1">
    <mxGraphModel dx="946" dy="500" grid="1" gridSize="10" guides="1" tooltips="1" connect="1" arrows="1" fold="1" page="1" pageScale="1" pageWidth="1169" pageHeight="827" math="0" shadow="0">
      <root>
        <mxCell id="0" />
        <mxCell id="1" parent="0" />
        <mxCell id="SZY12_XKgGBlkoAp8IEY-12" style="edgeStyle=orthogonalEdgeStyle;rounded=0;orthogonalLoop=1;jettySize=auto;html=1;strokeColor=#808080;" parent="1" source="SZY12_XKgGBlkoAp8IEY-1" edge="1">
          <mxGeometry relative="1" as="geometry">
            <mxPoint x="375.5" y="245.5" as="targetPoint" />
          </mxGeometry>
        </mxCell>
        <mxCell id="y2p2XLBIWcmQNdFaYHUd-9" value="Every 25 seconds" style="edgeLabel;html=1;align=center;verticalAlign=middle;resizable=0;points=[];" parent="SZY12_XKgGBlkoAp8IEY-12" vertex="1" connectable="0">
          <mxGeometry x="0.1407" y="2" relative="1" as="geometry">
            <mxPoint y="1" as="offset" />
          </mxGeometry>
        </mxCell>
        <mxCell id="SZY12_XKgGBlkoAp8IEY-1" value="ESP32 + PIR Sensor" style="aspect=fixed;html=1;perimeter=none;align=center;shadow=0;dashed=0;image;fontSize=12;image=img/lib/mscae/NetworkInterfaceCard.svg;" parent="1" vertex="1">
          <mxGeometry x="184.5" y="220.5" width="44.5" height="50" as="geometry" />
        </mxCell>
        <mxCell id="y2p2XLBIWcmQNdFaYHUd-1" value="Thingspeak Rest API &lt;br&gt;(Limited Storage)" style="verticalLabelPosition=bottom;html=1;verticalAlign=top;align=center;strokeColor=none;fillColor=#00BEF2;shape=mxgraph.azure.website_generic;pointerEvents=1;" parent="1" vertex="1">
          <mxGeometry x="380" y="225" width="50" height="42.5" as="geometry" />
        </mxCell>
        <mxCell id="y2p2XLBIWcmQNdFaYHUd-2" value="" style="ellipse;shape=cloud;whiteSpace=wrap;html=1;" parent="1" vertex="1">
          <mxGeometry x="560" y="173" width="300" height="207" as="geometry" />
        </mxCell>
        <mxCell id="y2p2XLBIWcmQNdFaYHUd-3" style="edgeStyle=orthogonalEdgeStyle;rounded=0;orthogonalLoop=1;jettySize=auto;html=1;exitX=0.05;exitY=0.95;exitDx=0;exitDy=0;exitPerimeter=0;entryX=0.92;entryY=0.5;entryDx=0;entryDy=0;entryPerimeter=0;" parent="1" source="y2p2XLBIWcmQNdFaYHUd-4" target="y2p2XLBIWcmQNdFaYHUd-1" edge="1">
          <mxGeometry relative="1" as="geometry">
            <mxPoint x="216.75" y="255.5" as="sourcePoint" />
            <mxPoint x="470" y="250" as="targetPoint" />
          </mxGeometry>
        </mxCell>
        <mxCell id="y2p2XLBIWcmQNdFaYHUd-10" value="Daily" style="edgeLabel;html=1;align=center;verticalAlign=middle;resizable=0;points=[];" parent="y2p2XLBIWcmQNdFaYHUd-3" vertex="1" connectable="0">
          <mxGeometry x="0.2048" y="-2" relative="1" as="geometry">
            <mxPoint as="offset" />
          </mxGeometry>
        </mxCell>
        <mxCell id="y2p2XLBIWcmQNdFaYHUd-4" value="Scheduled Trigger Flow" style="verticalLabelPosition=bottom;html=1;verticalAlign=top;align=center;strokeColor=none;fillColor=#00BEF2;shape=mxgraph.azure.automation;pointerEvents=1;" parent="1" vertex="1">
          <mxGeometry x="660" y="203" width="50" height="45" as="geometry" />
        </mxCell>
        <mxCell id="y2p2XLBIWcmQNdFaYHUd-7" value="&lt;font style=&quot;font-size: 17px&quot;&gt;Salesforce&lt;/font&gt;" style="text;html=1;strokeColor=none;fillColor=none;align=center;verticalAlign=middle;whiteSpace=wrap;rounded=0;" parent="1" vertex="1">
          <mxGeometry x="640" y="370" width="180" height="20" as="geometry" />
        </mxCell>
        <mxCell id="oTjhMitiewu1JEgrysfr-2" style="edgeStyle=orthogonalEdgeStyle;rounded=0;orthogonalLoop=1;jettySize=auto;html=1;exitX=0.05;exitY=0.95;exitDx=0;exitDy=0;exitPerimeter=0;entryX=0.5;entryY=0.85;entryDx=0;entryDy=0;entryPerimeter=0;" edge="1" parent="1" source="oTjhMitiewu1JEgrysfr-1" target="y2p2XLBIWcmQNdFaYHUd-1">
          <mxGeometry relative="1" as="geometry" />
        </mxCell>
        <mxCell id="oTjhMitiewu1JEgrysfr-3" value="on demand" style="edgeLabel;html=1;align=center;verticalAlign=middle;resizable=0;points=[];" vertex="1" connectable="0" parent="oTjhMitiewu1JEgrysfr-2">
          <mxGeometry x="-0.0617" y="1" relative="1" as="geometry">
            <mxPoint as="offset" />
          </mxGeometry>
        </mxCell>
        <mxCell id="oTjhMitiewu1JEgrysfr-1" value="Screen flow" style="verticalLabelPosition=bottom;html=1;verticalAlign=top;align=center;strokeColor=none;fillColor=#00BEF2;shape=mxgraph.azure.automation;pointerEvents=1;" vertex="1" parent="1">
          <mxGeometry x="710" y="290" width="50" height="45" as="geometry" />
        </mxCell>
        <mxCell id="oTjhMitiewu1JEgrysfr-5" style="edgeStyle=orthogonalEdgeStyle;rounded=0;orthogonalLoop=1;jettySize=auto;html=1;entryX=1;entryY=0.41;entryDx=0;entryDy=0;entryPerimeter=0;strokeColor=#000000;" edge="1" parent="1" source="oTjhMitiewu1JEgrysfr-4" target="oTjhMitiewu1JEgrysfr-1">
          <mxGeometry relative="1" as="geometry">
            <Array as="points">
              <mxPoint x="920" y="308" />
              <mxPoint x="920" y="308" />
            </Array>
          </mxGeometry>
        </mxCell>
        <mxCell id="oTjhMitiewu1JEgrysfr-4" value="User" style="shape=umlActor;verticalLabelPosition=bottom;verticalAlign=top;html=1;outlineConnect=0;" vertex="1" parent="1">
          <mxGeometry x="970" y="282.5" width="30" height="60" as="geometry" />
        </mxCell>
      </root>
    </mxGraphModel>
  </diagram>
</mxfile>
